<?xml version="1.0" standalone="no"?>
<!DOCTYPE svg PUBLIC "-//W3C//DTD SVG 20010904//EN"
 "http://www.w3.org/TR/2001/REC-SVG-20010904/DTD/svg10.dtd">
<svg version="1.0" xmlns="http://www.w3.org/2000/svg"
 width="512.000000pt" height="512.000000pt" viewBox="0 0 512.000000 512.000000"
 preserveAspectRatio="xMidYMid meet">

<g transform="translate(0.000000,512.000000) scale(0.100000,-0.100000)"
fill="#000000" stroke="none">
<path d="M2263 4985 c-461 -62 -877 -236 -1223 -513 -422 -338 -723 -806 -849
-1323 -54 -220 -66 -330 -66 -589 0 -176 5 -264 18 -350 136 -873 701 -1591
1505 -1914 485 -195 1023 -229 1535 -97 687 178 1274 665 1584 1318 149 313
220 615 230 978 11 416 -65 768 -246 1140 -349 714 -1001 1200 -1796 1336
-156 27 -538 35 -692 14z m877 -909 c89 -25 239 -97 314 -150 166 -118 301
-317 358 -524 32 -115 32 -345 0 -460 -27 -99 -67 -192 -121 -276 l-38 -61 29
-35 c173 -203 262 -486 229 -727 -18 -125 -37 -188 -91 -300 -105 -215 -280
-378 -500 -462 -155 -60 -166 -61 -884 -61 -646 0 -656 0 -713 22 -77 29 -152
104 -181 181 l-22 58 0 1279 0 1279 22 58 c28 75 103 152 178 181 54 21 64 21
705 19 593 -3 656 -4 715 -21z"/>
<path d="M2168 3173 c-2 -153 -1 -282 3 -286 3 -4 186 -7 405 -5 353 3 403 5
437 20 69 31 115 76 148 143 29 59 31 71 27 137 -8 115 -67 201 -168 247 -43
20 -65 21 -447 21 l-401 0 -4 -277z"/>
<path d="M2170 1956 l0 -286 433 0 c480 0 490 1 564 64 21 19 52 58 68 87 25
47 29 64 29 129 -1 47 -7 89 -18 113 -25 58 -90 122 -149 148 -51 23 -58 23
-489 27 l-438 3 0 -285z"/>
</g>
</svg>
